PathFileType	4	(X/Y/Z)	RBDS022static.trc
DataRate	CameraRate	NumFrames	NumMarkers	Units	OrigDataRate	OrigDataStartFrame	OrigNumFrames
150.000000	150.000000	4	48	mm	150.000000	131	150
Frame#	Time	L.Ankle			L.Ankle.Medial			L.ASIS			L.GTR			L.Heel.Bottom			L.Heel.Lateral			L.Heel.Top			L.HF			L.Iliac.Crest			L.Knee			L.Knee.Medial			L.MT1			L.MT2			L.MT5			L.PSIS			L.Shank.Bottom.Lateral			L.Shank.Bottom.Medial			L.Shank.Top.Lateral			L.Shank.Top.Medial			L.Thigh.Bottom.Lateral			L.Thigh.Bottom.Medial			L.Thigh.Top.Lateral			L.Thigh.Top.Medial			L.TT			R.Ankle			R.Ankle.Medial			R.ASIS			R.GTR			R.Heel.Bottom			R.Heel.Lateral			R.Heel.Top			R.HF			R.Iliac.Crest			R.Knee			R.Knee.Medial			R.MT1			R.MT2			R.MT5			R.PSIS			R.Shank.Bottom.Lateral			R.Shank.Bottom.Medial			R.Shank.Top.Lateral			R.Shank.Top.Medial			R.Thigh.Bottom.Lateral			R.Thigh.Bottom.Medial			R.Thigh.Top.Lateral			R.Thigh.Top.Medial			R.TT			
		X1	Y1	Z1	X2	Y2	Z2	X3	Y3	Z3	X4	Y4	Z4	X5	Y5	Z5	X6	Y6	Z6	X7	Y7	Z7	X8	Y8	Z8	X9	Y9	Z9	X10	Y10	Z10	X11	Y11	Z11	X12	Y12	Z12	X13	Y13	Z13	X14	Y14	Z14	X15	Y15	Z15	X16	Y16	Z16	X17	Y17	Z17	X18	Y18	Z18	X19	Y19	Z19	X20	Y20	Z20	X21	Y21	Z21	X22	Y22	Z22	X23	Y23	Z23	X24	Y24	Z24	X25	Y25	Z25	X26	Y26	Z26	X27	Y27	Z27	X28	Y28	Z28	X29	Y29	Z29	X30	Y30	Z30	X31	Y31	Z31	X32	Y32	Z32	X33	Y33	Z33	X34	Y34	Z34	X35	Y35	Z35	X36	Y36	Z36	X37	Y37	Z37	X38	Y38	Z38	X39	Y39	Z39	X40	Y40	Z40	X41	Y41	Z41	X42	Y42	Z42	X43	Y43	Z43	X44	Y44	Z44	X45	Y45	Z45	X46	Y46	Z46	X47	Y47	Z47	X48	Y48	Z48	

132	0.8733333333333334	707.4619750976563	106.4976043701172	1036.22802734375	725.9417114257813	126.548698425293	1120.905395507813	844.37646484375	1006.059936523438	1098.466552734375	764.5481567382813	903.302001953125	1034.68408203125	636.0202026367188	38.49472808837891	1087.012084960938	666.4367065429688	60.84345626831055	1041.657592773438	643.7611694335938	84.06311798095703	1088.247314453125	740.0884399414063	471.67822265625	1039.702392578125	758.2582397460938	1076.989990234375	1049.579467773438	746.3719482421875	540.4759521484375	1043.698486328125	743.901123046875	519.7901000976563	1168.470092773438	854.3684692382813	57.82754135131836	1123.176879882813	861.6455688476563	67.97789764404297	1076.414672851563	821.3062133789063	47.00286865234375	1010.203430175781	670.7543334960938	1030.256225585938	1172.080810546875	696.0951538085938	190.7140350341797	1030.05810546875	658.1331176757813	192.3005218505859	1070.255737304688	689.3812866210938	270.4120788574219	1020.997619628906	652.4390869140625	272.9122619628906	1060.1572265625	744.6364135742188	646.1240234375	1031.086669921875	685.9739990234375	654.5577392578125	1074.257202148438	748.9373779296875	755.0979614257813	1018.447204589844	695.1532592773438	762.6315307617188	1062.262817382813	790.9207763671875	446.4464111328125	1091.013549804688	700.98876953125	108.4082107543945	1415.227294921875	725.0518188476563	128.6823120117188	1330.778686523438	836.3278198242188	1006.532958984375	1336.845092773438	765.6734008789063	908.5292358398438	1393.517944335938	631.288330078125	40.0031852722168	1367.381225585938	663.1143188476563	60.53939437866211	1411.38232421875	638.9080810546875	83.48454284667969	1366.968139648438	750.271240234375	473.8090515136719	1400.426513671875	767.6027221679688	1074.148193359375	1377.11328125	757.2813720703125	535.9008178710938	1395.740600585938	755.65478515625	519.8868408203125	1271.696166992188	840.6874389648438	56.13608169555664	1320.009887695313	857.8588256835938	71.09276580810547	1373.990966796875	823.5994262695313	49.12773132324219	1435.551513671875	672.4984741210938	1030.833740234375	1257.279052734375	687.0133056640625	187.8866729736328	1416.571533203125	655.6038818359375	195.1134948730469	1376.809204101563	693.5654907226563	272.14697265625	1425.763916015625	657.674560546875	275.5775451660156	1386.145141601563	757.0360107421875	636.4303588867188	1406.423461914063	697.1281127929688	641.1502685546875	1367.01171875	760.0697631835938	746.837158203125	1413.549072265625	701.5066528320313	750.5889282226563	1378.080078125	799.1950073242188	449.2270812988281	1357.98388671875	
133	0.88	707.4649658203125	106.4989624023438	1036.228637695313	725.9305419921875	126.5514144897461	1120.911376953125	844.3748168945313	1006.063537597656	1098.463745117188	764.5535888671875	903.2969970703125	1034.689575195313	636.021728515625	38.47819519042969	1087.014770507813	666.42333984375	60.83312225341797	1041.65673828125	643.7666625976563	84.05245208740234	1088.248779296875	740.077880859375	471.6712646484375	1039.699951171875	758.2432861328125	1076.986328125	1049.587890625	746.3529663085938	540.4796142578125	1043.71044921875	743.8817138671875	519.7899169921875	1168.469604492188	854.3656005859375	57.82569122314453	1123.172973632813	861.6439208984375	67.97278594970703	1076.417724609375	821.3077392578125	47.01346969604492	1010.205688476563	670.7598876953125	1030.252319335938	1172.08740234375	696.0896606445313	190.7140960693359	1030.06005859375	658.1288452148438	192.2859497070313	1070.269165039063	689.367919921875	270.4063415527344	1021.0205078125	652.42724609375	272.9139404296875	1060.147827148438	744.6326904296875	646.1460571289063	1031.114013671875	685.9609375	654.556396484375	1074.27734375	748.9309692382813	755.0964965820313	1018.447204589844	695.1474609375	762.6329956054688	1062.275268554688	791.0933227539063	446.1652526855469	1090.256225585938	700.9842529296875	108.4090728759766	1415.234130859375	725.0463256835938	128.67236328125	1330.777465820313	836.316650390625	1006.526184082031	1336.848510742188	765.6520385742188	908.5289306640625	1393.533935546875	631.29296875	39.99075317382813	1367.36474609375	663.10791015625	60.54343032836914	1411.380981445313	638.9097290039063	83.48332214355469	1366.957763671875	750.2616577148438	473.8092041015625	1400.432861328125	767.5714111328125	1074.131103515625	1377.120361328125	757.277099609375	535.8992309570313	1395.74462890625	755.6680297851563	519.87939453125	1271.69775390625	840.679931640625	56.13659286499023	1320.00830078125	857.8629760742188	71.11070251464844	1374.007934570313	823.5966186523438	49.1260986328125	1435.544311523438	672.4957885742188	1030.828002929688	1257.2822265625	687.0059204101563	187.8955841064453	1416.579223632813	655.5980834960938	195.1132049560547	1376.795043945313	693.5570678710938	272.1446838378906	1425.763305664063	657.6634521484375	275.5855712890625	1386.14013671875	757.0289306640625	636.4219970703125	1406.417602539063	697.12158203125	641.1380004882813	1367.02294921875	760.058837890625	746.8350830078125	1413.551879882813	701.49951171875	750.57861328125	1378.092651367188	799.1842651367188	449.2191162109375	1357.98486328125	
134	0.8866666666666667	707.4546508789063	106.5006484985352	1036.233032226563	725.9229736328125	126.5501937866211	1120.910034179688	844.3701171875	1006.051147460938	1098.464721679688	764.5578002929688	903.2874755859375	1034.688354492188	636.015625	38.46609115600586	1087.011962890625	666.4288330078125	60.83578491210938	1041.662719726563	643.7620849609375	84.05341339111328	1088.2490234375	740.072509765625	471.6699829101563	1039.702392578125	758.2166137695313	1076.9599609375	1049.581420898438	746.3568725585938	540.4645385742188	1043.711303710938	743.87548828125	519.777587890625	1168.467895507813	854.3735961914063	57.83357238769531	1123.17724609375	861.6390380859375	67.98269653320313	1076.406005859375	821.3076782226563	47.01464080810547	1010.209411621094	670.7345581054688	1030.2578125	1172.080444335938	696.0925903320313	190.7102661132813	1030.069213867188	658.1111450195313	192.2889099121094	1070.271850585938	689.3511962890625	270.4066772460938	1021.025634765625	652.419189453125	272.8949584960938	1060.165771484375	744.6337890625	646.142333984375	1031.123901367188	685.9534912109375	654.5455932617188	1074.286010742188	748.9215087890625	755.0889892578125	1018.459533691406	695.1314086914063	762.627197265625	1062.282348632813	791.0926513671875	446.1475524902344	1090.253662109375	700.97412109375	108.4028778076172	1415.232299804688	725.0473022460938	128.6811981201172	1330.770874023438	836.30419921875	1006.519775390625	1336.8515625	765.6337280273438	908.5307006835938	1393.53662109375	631.29150390625	39.98527145385742	1367.376220703125	663.1089477539063	60.53815078735352	1411.386352539063	638.9057006835938	83.47724151611328	1366.955688476563	750.264892578125	473.8041381835938	1400.441650390625	767.5422973632813	1074.1162109375	1377.127197265625	757.2789306640625	535.8968505859375	1395.745483398438	755.6842651367188	519.8653564453125	1271.698364257813	840.6839599609375	56.13249206542969	1320.00732421875	857.8574829101563	71.08485412597656	1373.987670898438	823.5946655273438	49.12284469604492	1435.548583984375	672.4947509765625	1030.816284179688	1257.277954101563	687.00244140625	187.8784027099609	1416.574462890625	655.5972900390625	195.1081390380859	1376.805053710938	693.595703125	272.1245422363281	1425.947509765625	657.6611938476563	275.5784606933594	1386.150512695313	757.0267944335938	636.4190063476563	1406.422119140625	697.1202392578125	641.1314086914063	1367.025268554688	760.0433959960938	746.8290405273438	1413.5546875	701.4818115234375	750.5614013671875	1378.082397460938	799.192138671875	449.207763671875	1357.984008789063	
135	0.8933333333333334	707.4588012695313	106.5038146972656	1036.227661132813	725.9232177734375	126.5546188354492	1120.913940429688	844.3704833984375	1006.047546386719	1098.476928710938	764.5579223632813	903.2833862304688	1034.68701171875	636.0225219726563	38.47294998168945	1087.018920898438	666.4218139648438	60.84094619750977	1041.660522460938	643.7488403320313	84.05217742919922	1088.254516601563	740.070556640625	471.6659240722656	1039.701782226563	758.19873046875	1076.93603515625	1049.56787109375	746.3451538085938	540.4701538085938	1043.71337890625	743.8779907226563	519.7774658203125	1168.476440429688	854.3712158203125	57.84447860717773	1123.180541992188	861.6428833007813	67.97367095947266	1076.414306640625	821.3041381835938	47.01528549194336	1010.213684082031	670.7398071289063	1030.254760742188	1172.074829101563	696.0866088867188	190.7026824951172	1030.07177734375	658.1155395507813	192.2837066650391	1070.2724609375	689.3447265625	270.4010925292969	1021.039794921875	652.4066772460938	272.8926086425781	1060.17529296875	744.6367797851563	646.1320190429688	1031.130981445313	685.9595336914063	654.5433959960938	1074.296142578125	748.9321899414063	755.0744018554688	1018.458923339844	695.1373901367188	762.6216430664063	1062.28564453125	791.0706176757813	446.1471557617188	1090.260620117188	700.968994140625	108.4091033935547	1415.243041992188	725.0443725585938	128.6783447265625	1330.777709960938	836.3018188476563	1006.520812988281	1336.860717773438	765.6331176757813	908.5191650390625	1393.538208007813	631.28857421875	39.98537826538086	1367.371704101563	663.1089477539063	60.53714370727539	1411.383666992188	638.9082641601563	83.47518157958984	1366.963989257813	750.2801513671875	473.7984619140625	1400.445556640625	767.5247802734375	1074.120361328125	1377.125610351563	757.2771606445313	535.8889770507813	1395.750244140625	755.6947631835938	519.86279296875	1271.712158203125	840.6725463867188	56.13626098632813	1320.012817382813	857.8539428710938	71.09111022949219	1373.992797851563	823.5924072265625	49.12051010131836	1435.552490234375	672.4827880859375	1030.814575195313	1257.278564453125	687.0028686523438	187.8668823242188	1416.5732421875	655.594970703125	195.1107025146484	1376.803100585938	693.6145629882813	272.1913757324219	1425.975341796875	657.654052734375	275.5753479003906	1386.147705078125	757.0213012695313	636.4168090820313	1406.421142578125	697.1126098632813	641.1145629882813	1367.022827148438	760.0409545898438	746.8167114257813	1413.560424804688	701.4823608398438	750.56201171875	1378.0888671875	799.1786499023438	449.1962890625	1357.968017578125	
